<?xml version="1.0" encoding="utf-8"?>
<!-- Generator: Adobe Illustrator 24.0.1, SVG Export Plug-In . SVG Version: 6.00 Build 0)  -->
<svg version="1.1" xmlns="http://www.w3.org/2000/svg" xmlns:xlink="http://www.w3.org/1999/xlink" x="0px" y="0px"
	 viewBox="0 0 100 100" style="enable-background:new 0 0 100 100;" xml:space="preserve">
<style type="text/css">
	.st0{display:none;}
	.st1{display:inline;}
	.st2{fill:#2D2D2D;}
	.st3{fill:#FFFFFF;}
	.st4{fill:none;}
</style>
<g id="Background" class="st0">
	<g class="st1">
		<rect class="st2" width="100" height="100"/>
	</g>
</g>
<g id="Layer_2">
	<g>
		<circle class="st3" cx="50.5" cy="40.1" r="22.1"/>
	</g>
	<g>
		<path class="st4" d="M26.3,54.6c4.2,9.1,13.5,15.5,24.2,15.5s20-6.4,24.2-15.5c5.7,6.1,9.2,14.3,9.2,23.4c0,0.8,0,1.5-0.1,2.3
			c7.3-8,11.7-18.7,11.7-30.3c0-25-20.3-45.3-45.3-45.3S5,25,5,50c0,11.9,4.6,22.8,12.2,30.9c-0.1-0.9-0.1-1.9-0.1-2.9
			C17.1,68.9,20.6,60.7,26.3,54.6z"/>
		<path class="st3" d="M50.3,0.8C23,0.8,1,22.8,1,50c0,15.1,6.8,28.6,17.4,37.6c8.6,7.3,19.7,11.7,31.8,11.7
			c12.4,0,23.8-4.6,32.5-12.2C93,78,99.5,64.8,99.5,50C99.5,22.8,77.5,0.8,50.3,0.8z M83.8,80.3c0-0.8,0.1-1.5,0.1-2.3
			c0-9.1-3.5-17.3-9.2-23.4c-4.2,9.1-13.5,15.5-24.2,15.5s-20-6.4-24.2-15.5c-5.7,6.1-9.2,14.3-9.2,23.4c0,1,0,1.9,0.1,2.9
			C9.6,72.8,5,61.9,5,50C5,25,25.3,4.8,50.3,4.8S95.5,25,95.5,50C95.5,61.6,91.1,72.3,83.8,80.3z"/>
	</g>
</g>
</svg>
