<?xml version="1.0" encoding="utf-8"?>
<!-- Generator: Adobe Illustrator 23.1.0, SVG Export Plug-In . SVG Version: 6.00 Build 0)  -->
<svg version="1.1" id="Layer_1" xmlns="http://www.w3.org/2000/svg" xmlns:xlink="http://www.w3.org/1999/xlink" x="0px" y="0px"
	 viewBox="0 0 616.3 545" style="enable-background:new 0 0 616.3 545;" xml:space="preserve">
<style type="text/css">
	.st0{display:none;}
	.st1{display:inline;fill:#303030;}
	.st2{fill:url(#SVGID_1_);}
</style>
<g id="Background" class="st0">
	<rect x="-1117.9" y="-297.7" class="st1" width="3253.9" height="1145.4"/>
</g>
<g id="Layer_3">
	
		<linearGradient id="SVGID_1_" gradientUnits="userSpaceOnUse" x1="302.6276" y1="2843.5466" x2="314.0333" y2="2333.6467" gradientTransform="matrix(1 0 0 1 0 -2308.8533)">
		<stop  offset="0" style="stop-color:#004DAA"/>
		<stop  offset="0.2018" style="stop-color:#0062AD"/>
		<stop  offset="0.6172" style="stop-color:#0099B6"/>
		<stop  offset="0.9843" style="stop-color:#00CEBF"/>
	</linearGradient>
	<path class="st2" d="M466.7,25.5l-21.4-12.3H171.6l-21.4,12.3L13.3,262.6v24.7l136.8,237.2l21.4,12.3h273.8l21.4-12.3l136.8-237.2
		v-24.7L466.7,25.5z M146.2,468.3L41.7,287.4h104.5V468.3z M146.2,262.7H41.7L146.2,81.8V262.7z M452.4,50.2l105.3,182.3
		l-158.3-91.7L452.4,50.2z M431.1,37.8l-53,90.6L221.7,37.8H431.1z M170.9,38.9l0.6-1.1h0.9l190.4,110.3L170.9,260.6V38.9z
		 M363.9,176.1v196.1l-168.5-97.3L363.9,176.1z M170.9,511.2L170.9,511.2l-0.1-222l192.6,111.2L170.9,511.2z M218.9,512.1
		l159.3-91.6l54,91.6H218.9z M453,498.9l-53.4-90.7l158.3-91.1L453,498.9z M388.6,386V163.2L581.7,275L388.6,386z"/>
</g>
</svg>
