<?xml version="1.0" encoding="utf-8"?>
<!-- Generator: Adobe Illustrator 23.1.0, SVG Export Plug-In . SVG Version: 6.00 Build 0)  -->
<svg version="1.1" id="Layer_1" xmlns="http://www.w3.org/2000/svg" xmlns:xlink="http://www.w3.org/1999/xlink" x="0px" y="0px"
	 viewBox="0 0 1538 294" style="enable-background:new 0 0 1538 294;" xml:space="preserve">
<style type="text/css">
	.st0{fill:#666666;}
	.st1{fill:url(#SVGID_1_);}
</style>
<g>
	<path class="st0" d="M181.1,177.7H71.3v112.5H3.2V7.7h189v52.6H71.3v65h109.8V177.7z"/>
	<path class="st0" d="M325.5,190.3h-36.9v99.9h-68.1V7.7h111.2c33.5,0,59.7,7.4,78.6,22.3c18.9,14.9,28.3,35.9,28.3,63
		c0,19.6-4,35.9-11.9,48.8c-8,12.9-20.4,23.4-37.4,31.4l59,114.1v2.9h-73L325.5,190.3z M288.6,137.9h43.1c12.9,0,22.7-3.4,29.2-10.2
		c6.5-6.8,9.8-16.3,9.8-28.5c0-12.2-3.3-21.8-9.9-28.7c-6.6-6.9-16.3-10.4-29.1-10.4h-43.1V137.9z"/>
	<path class="st0" d="M949.7,215.2c0-10-3.5-17.7-10.6-23.3c-7.1-5.6-19.4-11.3-37.2-17.3c-17.7-5.9-32.2-11.7-43.5-17.3
		c-36.6-18-54.9-42.7-54.9-74.1c0-15.7,4.6-29.5,13.7-41.4c9.1-12,22-21.3,38.7-27.9c16.7-6.7,35.4-10,56.3-10
		c20.3,0,38.5,3.6,54.6,10.9c16.1,7.2,28.6,17.6,37.5,30.9c8.9,13.4,13.4,28.7,13.4,45.9h-67.9c0-11.5-3.5-20.4-10.6-26.8
		c-7.1-6.3-16.6-9.5-28.6-9.5c-12.2,0-21.8,2.7-28.8,8.1c-7.1,5.4-10.6,12.2-10.6,20.5c0,7.2,3.9,13.8,11.6,19.7
		c7.8,5.9,21.4,12,40.9,18.2c19.5,6.3,35.6,13,48.1,20.3c30.5,17.6,45.8,41.8,45.8,72.8c0,24.7-9.3,44.1-27.9,58.2
		c-18.6,14.1-44.2,21.1-76.6,21.1c-22.9,0-43.6-4.1-62.2-12.3c-18.6-8.2-32.5-19.5-41.9-33.8c-9.4-14.3-14.1-30.8-14.1-49.4h68.3
		c0,15.1,3.9,26.3,11.7,33.5c7.8,7.2,20.5,10.8,38.1,10.8c11.3,0,20.1-2.4,26.7-7.3C946.4,230.8,949.7,224,949.7,215.2z"/>
	<path class="st0" d="M1274.5,60.3h-84.8v229.9h-68.1V60.3h-83.2V7.7h236.1V60.3z"/>
	<path class="st0" d="M1409.8,130.4l52-122.6h73.5l-91,181v101.5h-69.1V188.8l-90.8-181h73.2L1409.8,130.4z"/>
</g>
<linearGradient id="SVGID_1_" gradientUnits="userSpaceOnUse" x1="618.0527" y1="64.8823" x2="624.2067" y2="339.9999" gradientTransform="matrix(1 0 0 -1 0 354)">
	<stop  offset="0" style="stop-color:#004DAA"/>
	<stop  offset="0.2018" style="stop-color:#0062AD"/>
	<stop  offset="0.6172" style="stop-color:#0099B6"/>
	<stop  offset="0.9843" style="stop-color:#00CEBF"/>
</linearGradient>
<path class="st1" d="M706.6,14.4l-11.6-6.7H547.4l-11.6,6.7l-73.9,128v13.3l73.8,128l11.6,6.7h147.7l11.6-6.7l73.8-128v-13.3
	L706.6,14.4z M533.7,253.3l-56.4-97.6h56.4V253.3z M533.7,142.3h-56.4l56.4-97.6V142.3z M698.9,27.7l56.8,98.4l-85.4-49.5
	L698.9,27.7z M687.4,21l-28.6,48.9L574.4,21H687.4z M547,21.6l0.3-0.6h0.5l102.7,59.5L547,141.3V21.6z M651.2,95.6v105.8L560.3,149
	L651.2,95.6z M547,276.5L547,276.5l0-119.8l103.9,60L547,276.5z M572.9,277l85.9-49.4L688,277H572.9z M699.2,269.8l-28.8-48.9
	l85.4-49.1L699.2,269.8z M664.5,208.9V88.7L768.6,149L664.5,208.9z"/>
</svg>
