<?xml version="1.0" encoding="utf-8"?>
<!-- Generator: Adobe Illustrator 23.0.3, SVG Export Plug-In . SVG Version: 6.00 Build 0)  -->
<svg version="1.1" id="Layer_1" xmlns="http://www.w3.org/2000/svg" xmlns:xlink="http://www.w3.org/1999/xlink" x="0px" y="0px"
	 viewBox="0 0 919.5 819.1" style="enable-background:new 0 0 919.5 819.1;" xml:space="preserve">
<style type="text/css">
	.st0{fill:url(#SVGID_1_);}
	.st1{fill:#80C6FF;}
	.st2{fill:#60BDFC;}
	.st3{fill:#01416D;}
	.st4{fill:#056CC1;}
	.st5{fill:#41A6F9;}
	.st6{fill:#0080FF;}
	.st7{fill:#0062B2;}
	.st8{fill:#00527F;}
	.st9{fill:#0078C9;}
</style>
<g>
	<g>
		
			<linearGradient id="SVGID_1_" gradientUnits="userSpaceOnUse" x1="452.1031" y1="18.9004" x2="469.3116" y2="788.2195" gradientTransform="matrix(1 0 0 -1 0 821.4312)">
			<stop  offset="0" style="stop-color:#004DAA"/>
			<stop  offset="0.2018" style="stop-color:#0062AD"/>
			<stop  offset="0.6172" style="stop-color:#0099B6"/>
			<stop  offset="0.9843" style="stop-color:#00CEBF"/>
		</linearGradient>
		<path class="st0" d="M699.7,34.3l-32.3-18.6h-413l-32.3,18.6L15.5,392.1v37.2L222,787.1l32.3,18.6h413.1l32.3-18.6l206.5-357.8
			v-37.2L699.7,34.3z M216.2,702.4l-157.7-273h157.7V702.4z M216.2,392.1H58.5l157.7-273V392.1z M678.2,71.6l158.9,275.1
			L598.3,208.3L678.2,71.6z M646,52.9l-80,136.7L330,52.9H646z M253.4,54.5l0.9-1.6h1.4L543,219.3L253.4,389.1V54.5z M544.7,261.5
			v295.9L290.5,410.6L544.7,261.5z M253.5,767.1l-0.1-0.2V432.2L544,600L253.5,767.1z M325.8,768.5l240.3-138.2l81.5,138.2H325.8z
			 M679,748.5l-80.6-136.8l238.9-137.4L679,748.5z M581.9,578.2V242l291.3,168.7L581.9,578.2z"/>
		<polygon class="st1" points="216.2,119 216.2,392.1 58.5,392.1 		"/>
		<polygon class="st2" points="216.2,429.3 216.2,702.4 58.5,429.3 		"/>
		<polygon class="st3" points="837.3,474.3 679,748.5 598.4,611.7 		"/>
		<polygon class="st4" points="647.5,768.5 325.8,768.5 566.1,630.3 		"/>
		<polygon class="st5" points="544,600 253.5,767.1 253.4,766.9 253.4,432.2 		"/>
		<polygon class="st6" points="544.7,261.5 544.7,557.4 290.5,410.6 		"/>
		<polygon class="st7" points="873.2,410.7 581.9,578.2 581.9,242 		"/>
		<polygon class="st8" points="837.1,346.7 598.2,208.4 678.2,71.6 		"/>
		<polygon class="st9" points="646,52.9 566,189.7 330,52.9 		"/>
		<polygon class="st5" points="543,219.4 253.4,389.1 253.4,54.5 254.4,52.9 255.7,52.9 		"/>
	</g>
</g>
</svg>
