<?xml version="1.0" encoding="utf-8"?>
<!-- Generator: Adobe Illustrator 24.0.1, SVG Export Plug-In . SVG Version: 6.00 Build 0)  -->
<svg version="1.1" id="Layer_1" xmlns="http://www.w3.org/2000/svg" xmlns:xlink="http://www.w3.org/1999/xlink" x="0px" y="0px"
	 viewBox="0 0 686 372" style="enable-background:new 0 0 686 372;" xml:space="preserve">
<style type="text/css">
	.st0{fill:#E2E2E2;}
	.st1{fill:#DE782F;}
	.st2{fill:#DB504A;}
	.st3{fill:#084C61;}
	.st4{fill:#5B4E58;}
	.st5{fill:#E3B505;}
	.st6{fill:#908D47;}
	.st7{fill:#4F6D7A;}
	.st8{fill:#517E88;}
	.st9{fill:#56A3A6;}
	.st10{fill:#206776;}
	.st11{fill:none;}
</style>
<g>
	<polygon class="st0" points="497.8,10 11.6,10 189.6,188 11.6,366 497.8,366 675.8,188 	"/>
	<g>
		<polygon class="st1" points="194.7,44 143.7,44 92.7,44 128.7,80 164.7,116 215.7,116 266.7,116 230.7,80 		"/>
		<polygon class="st2" points="164.7,116 200.7,152 236.7,188 262.2,162.5 287.7,137 277.2,126.5 266.7,116 215.7,116 		"/>
	</g>
	<g>
		<polygon class="st3" points="236.7,188 164.7,260 92.7,332 143.7,332 194.7,332 241.2,285.5 287.7,239 262.2,213.5 		"/>
		<polygon class="st4" points="338.7,188 313.2,162.5 287.7,137 262.2,162.5 236.7,188 262.2,213.5 287.7,239 313.2,213.5 		"/>
		<polygon class="st5" points="194.7,44 230.7,80 266.7,116 287.7,116 308.7,116 272.7,80 236.7,44 215.7,44 		"/>
		<polygon class="st6" points="338.7,44 287.7,44 236.7,44 272.7,80 308.7,116 359.7,116 410.7,116 374.7,80 		"/>
		<polygon class="st7" points="410.7,116 359.7,116 308.7,116 344.7,152 380.7,188 406.2,162.5 431.7,137 421.2,126.5 		"/>
		<polygon class="st8" points="482.7,188 457.2,162.5 431.7,137 406.2,162.5 380.7,188 406.2,213.5 431.7,239 457.2,213.5 		"/>
		<polygon class="st9" points="431.7,239 406.2,213.5 380.7,188 344.7,224 308.7,260 359.7,260 410.7,260 421.2,249.5 		"/>
		<polygon class="st10" points="308.7,260 272.7,296 236.7,332 287.7,332 338.7,332 374.7,296 410.7,260 359.7,260 		"/>
	</g>
	<g>
		<polygon class="st3" points="410.7,260 374.7,296 338.7,332 359.7,332 380.7,332 416.7,296 452.7,260 431.7,260 		"/>
		<polygon class="st4" points="452.7,260 416.7,296 380.7,332 431.7,332 482.7,332 518.7,296 554.7,260 503.7,260 		"/>
	</g>
	<g>
		<polygon class="st11" points="524.7,188 488.7,224 452.7,260 488.7,224 524.7,188 524.7,188 		"/>
		<polygon class="st5" points="482.7,44 431.7,44 380.7,44 452.7,116 524.7,188 550.2,162.5 575.7,137 529.2,90.5 		"/>
	</g>
	<g>
		<polygon class="st2" points="452.7,260 503.7,260 554.7,260 565.2,249.5 575.7,239 550.2,213.5 524.7,188 488.7,224 		"/>
		<polygon class="st1" points="575.7,137 550.2,162.5 524.7,188 524.7,188 524.7,188 550.2,213.5 575.7,239 601.2,213.5 626.7,188 
			601.2,162.5 		"/>
	</g>
</g>
</svg>
